<?xml version="1.0" standalone="no"?>
<!DOCTYPE svg PUBLIC "-//W3C//DTD SVG 20010904//EN" "http://www.w3.org/TR/2001/REC-SVG-20010904/DTD/svg10.dtd">
<svg version="1.0" xmlns="http://www.w3.org/2000/svg"
    width="200pt" height="50pt" viewBox="0 0 120.000000 50.000000"
    preserveAspectRatio="xMidYMid meet">

    <g transform="translate(0.000000,50.000000) scale(0.100000,-0.100000)"
        fill="#000000" stroke="none">

        <path
            d="M0 250 l0 -250 600 0 600 0 0 250 0 250 -600 0 -600 0 0 -250z m1190
0 l0 -240 -590 0 -590 0 0 240 0 240 590 0 590 0 0 -240z" />

        <path
            d="M353 344 c-29 -15 -63 -65 -63 -94 0 -31 34 -80 67 -95 30 -15 42
-15 75 -6 42 13 78 58 78 99 0 39 -29 83 -65 98 -43 18 -52 17 -92 -2z m96
-24 c31 -16 46 -65 31 -100 -15 -37 -37 -50 -82 -50 -71 0 -106 84 -56 137 23
25 74 31 107 13z" />
        <path
            d="M60 340 c0 -8 -6 -54 -14 -102 -10 -70 -10 -88 0 -88 8 0 15 26 19
73 l8 72 35 -72 c20 -40 39 -73 43 -73 3 0 21 33 40 73 18 39 34 65 36 57 1
-8 5 -41 8 -72 4 -38 11 -58 20 -58 10 0 11 9 5 38 -5 20 -11 65 -15 100 -4
34 -10 62 -13 62 -4 0 -23 -36 -42 -80 -19 -44 -37 -80 -40 -80 -3 1 -18 30
-34 65 -34 76 -55 108 -56 85z" />
        <path
            d="M540 250 l0 -100 59 0 c50 0 62 4 85 26 38 39 37 105 -3 145 -26 25
-37 29 -85 29 l-56 0 0 -100z m132 50 c45 -56 4 -130 -71 -130 l-36 0 0 81 0
81 45 -5 c29 -3 50 -12 62 -27z" />
        <path
            d="M750 250 c0 -73 3 -100 13 -100 9 0 12 27 12 100 0 73 -3 100 -12
100 -10 0 -13 -27 -13 -100z" />
        <path
            d="M820 250 c0 -60 4 -100 10 -100 6 0 10 21 10 47 l0 47 43 -48 c24
-27 48 -47 54 -45 7 2 -7 25 -32 52 -25 26 -45 51 -45 56 0 5 20 27 45 50 30
27 39 41 28 41 -10 0 -34 -17 -55 -37 l-38 -37 0 37 c0 20 -4 37 -10 37 -6 0
-10 -40 -10 -100z" />
        <path
            d="M1020 254 c-51 -107 -50 -104 -35 -104 5 0 27 36 48 80 l37 79 34
-75 c31 -71 46 -92 56 -81 4 4 -84 197 -91 197 -2 0 -24 -43 -49 -96z"
            fill="white" />
    </g>
</svg>